<svg id="visual" viewBox="0 0 960 300" width="960" height="300" xmlns="http://www.w3.org/2000/svg" xmlns:xlink="http://www.w3.org/1999/xlink" version="1.1"><rect x="0" y="0" width="960" height="300" fill="#202731"></rect><path d="M0 213L10.7 215.5C21.3 218 42.7 223 64 225.8C85.3 228.7 106.7 229.3 128 229.8C149.3 230.3 170.7 230.7 192 222.5C213.3 214.3 234.7 197.7 256 193C277.3 188.3 298.7 195.7 320 195C341.3 194.3 362.7 185.7 384 181.2C405.3 176.7 426.7 176.3 448 185.2C469.3 194 490.7 212 512 212.5C533.3 213 554.7 196 576 194.2C597.3 192.3 618.7 205.7 640 206.7C661.3 207.7 682.7 196.3 704 189.5C725.3 182.7 746.7 180.3 768 186C789.3 191.7 810.7 205.3 832 204.7C853.3 204 874.7 189 896 187.2C917.3 185.3 938.7 196.7 949.3 202.3L960 208L960 0L949.3 0C938.7 0 917.3 0 896 0C874.7 0 853.3 0 832 0C810.7 0 789.3 0 768 0C746.7 0 725.3 0 704 0C682.7 0 661.3 0 640 0C618.7 0 597.3 0 576 0C554.7 0 533.3 0 512 0C490.7 0 469.3 0 448 0C426.7 0 405.3 0 384 0C362.7 0 341.3 0 320 0C298.7 0 277.3 0 256 0C234.7 0 213.3 0 192 0C170.7 0 149.3 0 128 0C106.7 0 85.3 0 64 0C42.7 0 21.3 0 10.7 0L0 0Z" fill="#ff6f61"></path><path d="M0 149L10.7 156.5C21.3 164 42.7 179 64 179.2C85.3 179.3 106.7 164.7 128 161.3C149.3 158 170.7 166 192 167.3C213.3 168.7 234.7 163.3 256 159.3C277.3 155.3 298.7 152.7 320 157.3C341.3 162 362.7 174 384 181C405.3 188 426.7 190 448 185.7C469.3 181.3 490.7 170.7 512 163C533.3 155.3 554.7 150.7 576 156.5C597.3 162.3 618.7 178.7 640 181.3C661.3 184 682.7 173 704 170.8C725.3 168.7 746.7 175.3 768 179.5C789.3 183.7 810.7 185.3 832 179.2C853.3 173 874.7 159 896 153.3C917.3 147.7 938.7 150.3 949.3 151.7L960 153L960 0L949.3 0C938.7 0 917.3 0 896 0C874.7 0 853.3 0 832 0C810.7 0 789.3 0 768 0C746.7 0 725.3 0 704 0C682.7 0 661.3 0 640 0C618.7 0 597.3 0 576 0C554.7 0 533.3 0 512 0C490.7 0 469.3 0 448 0C426.7 0 405.3 0 384 0C362.7 0 341.3 0 320 0C298.7 0 277.3 0 256 0C234.7 0 213.3 0 192 0C170.7 0 149.3 0 128 0C106.7 0 85.3 0 64 0C42.7 0 21.3 0 10.7 0L0 0Z" fill="#f86657"></path><path d="M0 120L10.7 124.7C21.3 129.3 42.7 138.7 64 140C85.3 141.3 106.7 134.7 128 130.3C149.3 126 170.7 124 192 126.5C213.3 129 234.7 136 256 135.5C277.3 135 298.7 127 320 126.8C341.3 126.7 362.7 134.3 384 140C405.3 145.7 426.7 149.3 448 145.3C469.3 141.3 490.7 129.7 512 129C533.3 128.3 554.7 138.7 576 139.2C597.3 139.7 618.7 130.3 640 128.8C661.3 127.3 682.7 133.7 704 139.7C725.3 145.7 746.7 151.3 768 150.2C789.3 149 810.7 141 832 137C853.3 133 874.7 133 896 136.7C917.3 140.3 938.7 147.7 949.3 151.3L960 155L960 0L949.3 0C938.7 0 917.3 0 896 0C874.7 0 853.3 0 832 0C810.7 0 789.3 0 768 0C746.7 0 725.3 0 704 0C682.7 0 661.3 0 640 0C618.7 0 597.3 0 576 0C554.7 0 533.3 0 512 0C490.7 0 469.3 0 448 0C426.7 0 405.3 0 384 0C362.7 0 341.3 0 320 0C298.7 0 277.3 0 256 0C234.7 0 213.3 0 192 0C170.7 0 149.3 0 128 0C106.7 0 85.3 0 64 0C42.7 0 21.3 0 10.7 0L0 0Z" fill="#f15d4e"></path><path d="M0 105L10.7 105.3C21.3 105.7 42.7 106.3 64 108.3C85.3 110.3 106.7 113.7 128 115.3C149.3 117 170.7 117 192 115.7C213.3 114.3 234.7 111.7 256 107.3C277.3 103 298.7 97 320 93.7C341.3 90.3 362.7 89.7 384 93.8C405.3 98 426.7 107 448 112.5C469.3 118 490.7 120 512 115.3C533.3 110.7 554.7 99.3 576 96C597.3 92.7 618.7 97.3 640 99.2C661.3 101 682.7 100 704 99.3C725.3 98.7 746.7 98.3 768 97.7C789.3 97 810.7 96 832 94.3C853.3 92.7 874.7 90.3 896 94.2C917.3 98 938.7 108 949.3 113L960 118L960 0L949.3 0C938.7 0 917.3 0 896 0C874.7 0 853.3 0 832 0C810.7 0 789.3 0 768 0C746.7 0 725.3 0 704 0C682.7 0 661.3 0 640 0C618.7 0 597.3 0 576 0C554.7 0 533.3 0 512 0C490.7 0 469.3 0 448 0C426.7 0 405.3 0 384 0C362.7 0 341.3 0 320 0C298.7 0 277.3 0 256 0C234.7 0 213.3 0 192 0C170.7 0 149.3 0 128 0C106.7 0 85.3 0 64 0C42.7 0 21.3 0 10.7 0L0 0Z" fill="#eb5344"></path><path d="M0 71L10.7 71.3C21.3 71.7 42.7 72.3 64 74.7C85.3 77 106.7 81 128 81.2C149.3 81.3 170.7 77.7 192 74C213.3 70.3 234.7 66.7 256 68.3C277.3 70 298.7 77 320 79.7C341.3 82.3 362.7 80.7 384 80.5C405.3 80.3 426.7 81.7 448 81.8C469.3 82 490.7 81 512 77.5C533.3 74 554.7 68 576 69.3C597.3 70.7 618.7 79.3 640 80C661.3 80.7 682.7 73.3 704 69.5C725.3 65.7 746.7 65.3 768 67.7C789.3 70 810.7 75 832 77.3C853.3 79.7 874.7 79.3 896 78.8C917.3 78.3 938.7 77.7 949.3 77.3L960 77L960 0L949.3 0C938.7 0 917.3 0 896 0C874.7 0 853.3 0 832 0C810.7 0 789.3 0 768 0C746.7 0 725.3 0 704 0C682.7 0 661.3 0 640 0C618.7 0 597.3 0 576 0C554.7 0 533.3 0 512 0C490.7 0 469.3 0 448 0C426.7 0 405.3 0 384 0C362.7 0 341.3 0 320 0C298.7 0 277.3 0 256 0C234.7 0 213.3 0 192 0C170.7 0 149.3 0 128 0C106.7 0 85.3 0 64 0C42.7 0 21.3 0 10.7 0L0 0Z" fill="#e4493b"></path><path d="M0 38L10.7 39.7C21.3 41.3 42.7 44.7 64 47C85.3 49.3 106.7 50.7 128 47.8C149.3 45 170.7 38 192 35.3C213.3 32.7 234.7 34.3 256 36.7C277.3 39 298.7 42 320 43.5C341.3 45 362.7 45 384 43.2C405.3 41.3 426.7 37.7 448 36.8C469.3 36 490.7 38 512 40.3C533.3 42.7 554.7 45.3 576 46C597.3 46.7 618.7 45.3 640 45.5C661.3 45.7 682.7 47.3 704 49C725.3 50.7 746.7 52.3 768 51.2C789.3 50 810.7 46 832 42C853.3 38 874.7 34 896 34C917.3 34 938.7 38 949.3 40L960 42L960 0L949.3 0C938.7 0 917.3 0 896 0C874.7 0 853.3 0 832 0C810.7 0 789.3 0 768 0C746.7 0 725.3 0 704 0C682.7 0 661.3 0 640 0C618.7 0 597.3 0 576 0C554.7 0 533.3 0 512 0C490.7 0 469.3 0 448 0C426.7 0 405.3 0 384 0C362.7 0 341.3 0 320 0C298.7 0 277.3 0 256 0C234.7 0 213.3 0 192 0C170.7 0 149.3 0 128 0C106.7 0 85.3 0 64 0C42.7 0 21.3 0 10.7 0L0 0Z" fill="#dd3f31"></path></svg>