<svg id="visual" viewBox="0 0 960 300" width="960" height="300" xmlns="http://www.w3.org/2000/svg" xmlns:xlink="http://www.w3.org/1999/xlink" version="1.1"><rect x="0" y="0" width="960" height="300" fill="#ff0066"></rect><path d="M0 202L10.7 200C21.3 198 42.7 194 64 194.3C85.3 194.7 106.7 199.3 128 198C149.3 196.7 170.7 189.3 192 189.8C213.3 190.3 234.7 198.7 256 206.2C277.3 213.7 298.7 220.3 320 218.3C341.3 216.3 362.7 205.7 384 200.5C405.3 195.3 426.7 195.7 448 199.2C469.3 202.7 490.7 209.3 512 205.7C533.3 202 554.7 188 576 188.8C597.3 189.7 618.7 205.3 640 205.3C661.3 205.3 682.7 189.7 704 191.2C725.3 192.7 746.7 211.3 768 216.3C789.3 221.3 810.7 212.7 832 207.8C853.3 203 874.7 202 896 198.2C917.3 194.3 938.7 187.7 949.3 184.3L960 181L960 0L949.3 0C938.7 0 917.3 0 896 0C874.7 0 853.3 0 832 0C810.7 0 789.3 0 768 0C746.7 0 725.3 0 704 0C682.7 0 661.3 0 640 0C618.7 0 597.3 0 576 0C554.7 0 533.3 0 512 0C490.7 0 469.3 0 448 0C426.7 0 405.3 0 384 0C362.7 0 341.3 0 320 0C298.7 0 277.3 0 256 0C234.7 0 213.3 0 192 0C170.7 0 149.3 0 128 0C106.7 0 85.3 0 64 0C42.7 0 21.3 0 10.7 0L0 0Z" fill="#ff0066"></path><path d="M0 151L10.7 151.5C21.3 152 42.7 153 64 154.2C85.3 155.3 106.7 156.7 128 162.5C149.3 168.3 170.7 178.7 192 176.5C213.3 174.3 234.7 159.7 256 156.3C277.3 153 298.7 161 320 166.5C341.3 172 362.7 175 384 171.3C405.3 167.7 426.7 157.3 448 155.3C469.3 153.3 490.7 159.7 512 167C533.3 174.3 554.7 182.7 576 185.5C597.3 188.3 618.7 185.7 640 181.7C661.3 177.7 682.7 172.3 704 171.2C725.3 170 746.7 173 768 173.7C789.3 174.3 810.7 172.7 832 172.8C853.3 173 874.7 175 896 175.7C917.3 176.3 938.7 175.7 949.3 175.3L960 175L960 0L949.3 0C938.7 0 917.3 0 896 0C874.7 0 853.3 0 832 0C810.7 0 789.3 0 768 0C746.7 0 725.3 0 704 0C682.7 0 661.3 0 640 0C618.7 0 597.3 0 576 0C554.7 0 533.3 0 512 0C490.7 0 469.3 0 448 0C426.7 0 405.3 0 384 0C362.7 0 341.3 0 320 0C298.7 0 277.3 0 256 0C234.7 0 213.3 0 192 0C170.7 0 149.3 0 128 0C106.7 0 85.3 0 64 0C42.7 0 21.3 0 10.7 0L0 0Z" fill="#cc2480"></path><path d="M0 160L10.7 153.8C21.3 147.7 42.7 135.3 64 135.2C85.3 135 106.7 147 128 145.8C149.3 144.7 170.7 130.3 192 130.2C213.3 130 234.7 144 256 150.5C277.3 157 298.7 156 320 154.8C341.3 153.7 362.7 152.3 384 151.5C405.3 150.7 426.7 150.3 448 150.3C469.3 150.3 490.7 150.7 512 146.2C533.3 141.7 554.7 132.3 576 132.3C597.3 132.3 618.7 141.7 640 142C661.3 142.3 682.7 133.7 704 128C725.3 122.3 746.7 119.7 768 122.5C789.3 125.3 810.7 133.7 832 140.8C853.3 148 874.7 154 896 153.2C917.3 152.3 938.7 144.7 949.3 140.8L960 137L960 0L949.3 0C938.7 0 917.3 0 896 0C874.7 0 853.3 0 832 0C810.7 0 789.3 0 768 0C746.7 0 725.3 0 704 0C682.7 0 661.3 0 640 0C618.7 0 597.3 0 576 0C554.7 0 533.3 0 512 0C490.7 0 469.3 0 448 0C426.7 0 405.3 0 384 0C362.7 0 341.3 0 320 0C298.7 0 277.3 0 256 0C234.7 0 213.3 0 192 0C170.7 0 149.3 0 128 0C106.7 0 85.3 0 64 0C42.7 0 21.3 0 10.7 0L0 0Z" fill="#903886"></path><path d="M0 98L10.7 97.2C21.3 96.3 42.7 94.7 64 97.3C85.3 100 106.7 107 128 107.2C149.3 107.3 170.7 100.7 192 99.2C213.3 97.7 234.7 101.3 256 100.3C277.3 99.3 298.7 93.7 320 93C341.3 92.3 362.7 96.7 384 97C405.3 97.3 426.7 93.7 448 94.7C469.3 95.7 490.7 101.3 512 102.5C533.3 103.7 554.7 100.3 576 98C597.3 95.7 618.7 94.3 640 96.8C661.3 99.3 682.7 105.7 704 109C725.3 112.3 746.7 112.7 768 111.8C789.3 111 810.7 109 832 106.3C853.3 103.7 874.7 100.3 896 103.3C917.3 106.3 938.7 115.7 949.3 120.3L960 125L960 0L949.3 0C938.7 0 917.3 0 896 0C874.7 0 853.3 0 832 0C810.7 0 789.3 0 768 0C746.7 0 725.3 0 704 0C682.7 0 661.3 0 640 0C618.7 0 597.3 0 576 0C554.7 0 533.3 0 512 0C490.7 0 469.3 0 448 0C426.7 0 405.3 0 384 0C362.7 0 341.3 0 320 0C298.7 0 277.3 0 256 0C234.7 0 213.3 0 192 0C170.7 0 149.3 0 128 0C106.7 0 85.3 0 64 0C42.7 0 21.3 0 10.7 0L0 0Z" fill="#583c77"></path><path d="M0 80L10.7 78.5C21.3 77 42.7 74 64 74.7C85.3 75.3 106.7 79.7 128 78.3C149.3 77 170.7 70 192 66.5C213.3 63 234.7 63 256 66C277.3 69 298.7 75 320 76.8C341.3 78.7 362.7 76.3 384 77C405.3 77.7 426.7 81.3 448 79.8C469.3 78.3 490.7 71.7 512 71C533.3 70.3 554.7 75.7 576 79.3C597.3 83 618.7 85 640 82.7C661.3 80.3 682.7 73.7 704 72.2C725.3 70.7 746.7 74.3 768 75.2C789.3 76 810.7 74 832 72.8C853.3 71.7 874.7 71.3 896 72.8C917.3 74.3 938.7 77.7 949.3 79.3L960 81L960 0L949.3 0C938.7 0 917.3 0 896 0C874.7 0 853.3 0 832 0C810.7 0 789.3 0 768 0C746.7 0 725.3 0 704 0C682.7 0 661.3 0 640 0C618.7 0 597.3 0 576 0C554.7 0 533.3 0 512 0C490.7 0 469.3 0 448 0C426.7 0 405.3 0 384 0C362.7 0 341.3 0 320 0C298.7 0 277.3 0 256 0C234.7 0 213.3 0 192 0C170.7 0 149.3 0 128 0C106.7 0 85.3 0 64 0C42.7 0 21.3 0 10.7 0L0 0Z" fill="#2f3558"></path><path d="M0 45L10.7 46.7C21.3 48.3 42.7 51.7 64 50.5C85.3 49.3 106.7 43.7 128 40.3C149.3 37 170.7 36 192 35.2C213.3 34.3 234.7 33.7 256 35.3C277.3 37 298.7 41 320 43.3C341.3 45.7 362.7 46.3 384 44.8C405.3 43.3 426.7 39.7 448 37.3C469.3 35 490.7 34 512 36.7C533.3 39.3 554.7 45.7 576 45C597.3 44.3 618.7 36.7 640 34.8C661.3 33 682.7 37 704 38.7C725.3 40.3 746.7 39.7 768 38.3C789.3 37 810.7 35 832 34.7C853.3 34.3 874.7 35.7 896 38.2C917.3 40.7 938.7 44.3 949.3 46.2L960 48L960 0L949.3 0C938.7 0 917.3 0 896 0C874.7 0 853.3 0 832 0C810.7 0 789.3 0 768 0C746.7 0 725.3 0 704 0C682.7 0 661.3 0 640 0C618.7 0 597.3 0 576 0C554.7 0 533.3 0 512 0C490.7 0 469.3 0 448 0C426.7 0 405.3 0 384 0C362.7 0 341.3 0 320 0C298.7 0 277.3 0 256 0C234.7 0 213.3 0 192 0C170.7 0 149.3 0 128 0C106.7 0 85.3 0 64 0C42.7 0 21.3 0 10.7 0L0 0Z" fill="#202731"></path></svg>